<svg width="200" height="200" viewBox="0 0 200 200" fill="none" xmlns="http://www.w3.org/2000/svg">
  <defs>
  <clipPath id="clip0_103_21">
   <rect width="200" height="200" fill="white" id="svg_1"/>
  </clipPath>
  <linearGradient id="paint0_linear_103_21" x1="0.5" y1="0" x2="0.5" y2="1">
   <stop stop-color="#5ebd38"/>
   <stop offset="1" stop-color="#dbe36d"/>
  </linearGradient>
 </defs>
 <g>
  <g clip-path="url(#clip0_103_21)" id="svg_2">
   <path d="m78.5579,16.3347c12.7786,-21.7796 44.2671,-21.77959 57.0451,0l0.464,0.791c5.896,10.0476 16.642,16.2523 28.291,16.3339l0.918,0.0064c25.251,0.1768 40.995,27.4463 28.522,49.4027l-0.453,0.7974c-5.754,10.1292 -5.754,22.5389 0,32.6679l0.453,0.797c12.473,21.957 -3.271,49.226 -28.522,49.403l-0.918,0.006c-11.649,0.082 -22.395,6.287 -28.291,16.334l-0.464,0.791c-12.778,21.78 -44.2665,21.78 -57.0451,0l-0.4641,-0.791c-5.8952,-10.047 -16.6421,-16.252 -28.2911,-16.334l-0.9171,-0.006c-25.251,-0.177 -40.99501,-27.446 -28.5227,-49.403l0.453,-0.797c5.7539,-10.129 5.7539,-22.5387 0,-32.6679l-0.453,-0.7974c-12.47232,-21.9564 3.2717,-49.2259 28.5227,-49.4027l0.9171,-0.0064c11.6491,-0.0816 22.3959,-6.2863 28.2911,-16.3339l0.4641,-0.791z" fill="url(#paint0_linear_103_21)" id="svg_3"/>
  </g>
 </g>
</svg>
